<?xml version="1.0" encoding="UTF-8" standalone="no"?>
<!-- Created with Inkscape (http://www.inkscape.org/) -->

<svg
   xmlns:dc="http://purl.org/dc/elements/1.1/"
   xmlns:cc="http://creativecommons.org/ns#"
   xmlns:rdf="http://www.w3.org/1999/02/22-rdf-syntax-ns#"
   xmlns:svg="http://www.w3.org/2000/svg"
   xmlns="http://www.w3.org/2000/svg"
   xmlns:sodipodi="http://sodipodi.sourceforge.net/DTD/sodipodi-0.dtd"
   xmlns:inkscape="http://www.inkscape.org/namespaces/inkscape"
   width="744.09448819"
   height="1052.3622047"
   id="svg2"
   version="1.1"
   inkscape:version="0.48.2 r9819"
   sodipodi:docname="planet.svg"
   inkscape:export-filename="/Users/timk/code/singlecycles/images/planet.png"
   inkscape:export-xdpi="90"
   inkscape:export-ydpi="90">
  <defs
     id="defs4" />
  <sodipodi:namedview
     id="base"
     pagecolor="#ffffff"
     bordercolor="#666666"
     borderopacity="1.0"
     inkscape:pageopacity="0.0"
     inkscape:pageshadow="2"
     inkscape:zoom="0.5"
     inkscape:cx="380.5885"
     inkscape:cy="746.09956"
     inkscape:document-units="px"
     inkscape:current-layer="layer1"
     showgrid="false"
     inkscape:window-width="981"
     inkscape:window-height="602"
     inkscape:window-x="20"
     inkscape:window-y="20"
     inkscape:window-maximized="0" />
  <metadata
     id="metadata7">
    <rdf:RDF>
      <cc:Work
         rdf:about="">
        <dc:format>image/svg+xml</dc:format>
        <dc:type
           rdf:resource="http://purl.org/dc/dcmitype/StillImage" />
        <dc:title></dc:title>
      </cc:Work>
    </rdf:RDF>
  </metadata>
  <g
     inkscape:label="Layer 1"
     inkscape:groupmode="layer"
     id="layer1">
    <g
       id="g3020"
       transform="matrix(1.0090219,0,0,0.99841419,-173.77407,-5.0746004)"
       inkscape:export-filename="/Users/timk/code/singlecycles/images/worlds.png"
       inkscape:export-xdpi="52.856159"
       inkscape:export-ydpi="52.856159">
      <path
         d="m 465.71428,310.93362 c 0,74.95293 -60.12177,135.71428 -134.28572,135.71428 -74.16396,0 -134.28572,-60.76135 -134.28572,-135.71428 0,-74.95292 60.12176,-135.71427 134.28572,-135.71427 74.16395,0 134.28572,60.76135 134.28572,135.71427 z"
         sodipodi:ry="135.71428"
         sodipodi:rx="134.28572"
         sodipodi:cy="310.93362"
         sodipodi:cx="331.42856"
         id="path2985"
         style="fill:#ff0000;fill-rule:evenodd;stroke:#000000;stroke-width:1px;stroke-linecap:butt;stroke-linejoin:miter;stroke-opacity:1"
         sodipodi:type="arc" />
      <path
         sodipodi:nodetypes="cccsccccccsccccccccccccccccccccccccccccsccccscccc"
         inkscape:connector-curvature="0"
         d="m 290.85568,188.9909 c 7.48407,0.30469 14.97635,0.33399 22.46549,0.37573 1.94367,0.0104 3.88732,0.026 5.83102,0.0312 4.69138,0.0126 6.96054,-0.13969 11.61862,0.37579 5.38647,0.5961 10.60999,2.00008 15.83404,3.3728 9.49566,2.46776 17.70909,7.39971 25.29887,13.45048 5.44126,4.85264 10.29572,10.33241 14.52839,16.26174 3.56428,5.55335 7.04782,11.15824 10.10777,17.00746 1.9446,4.23847 4.08006,8.85473 3.4925,13.60824 -0.23864,0.61888 -0.4244,1.26084 -0.7159,1.85664 -0.65037,1.32926 -1.96863,3.24543 -2.73872,4.46311 -1.85746,2.93707 -3.62316,5.92734 -5.37955,8.92539 -3.88922,6.86355 -7.40496,13.93444 -10.99395,20.95888 -3.88295,7.23616 -7.22532,14.7432 -10.12826,22.42148 -1.81853,4.16918 -2.12623,8.63845 -2.26301,13.11959 -0.0236,4.27063 1.15514,6.25097 4.63497,8.50538 5.11152,2.22864 9.93213,5.05967 14.82951,7.71351 5.78751,3.20509 10.64416,7.37587 14.61702,12.63569 3.3995,5.28846 5.86515,11.09398 8.11047,16.94404 1.97034,5.39286 3.42275,10.92348 4.32933,16.58765 0.49877,3.65615 0.73042,7.34525 0.77711,11.03321 -0.0298,2.61205 -0.0389,5.2893 0.88151,7.76891 0.6897,2.19451 2.36152,3.11884 4.47212,3.67483 0.75868,0.2526 1.5837,1.16875 2.00389,0.19787 l -17.09273,12.716 0,0 c -0.77671,-0.40952 -1.55123,-0.82501 -2.38966,-1.09988 -2.45483,-1.05541 -4.57457,-2.60245 -5.46592,-5.23537 -0.99616,-2.69126 -1.21493,-5.61675 -1.12657,-8.46896 -0.004,-3.63875 0.0155,-7.28497 -0.40695,-10.90586 -0.70769,-5.56739 -2.05097,-10.9809 -3.96464,-16.26248 -2.16047,-5.671 -4.51154,-11.30504 -7.82108,-16.42006 -4.01823,-5.11813 -8.30023,-8.84388 -14.0759,-11.95184 -5.03722,-2.68118 -10.13139,-5.23257 -15.2868,-7.67563 -3.88008,-2.75072 -5.51917,-5.51789 -5.58552,-10.37535 0.15765,-4.66857 0.0535,-9.53844 2.10317,-13.84573 3.24913,-7.67889 6.58698,-15.32874 10.42582,-22.73488 3.40773,-7.08875 7.03335,-14.0861 10.77459,-21.00245 2.77897,-4.87325 5.55854,-9.7399 8.56047,-14.47771 0.18582,-0.43573 0.47197,-0.84127 0.55746,-1.30719 0.59585,-3.24754 -1.86802,-8.24607 -2.9656,-11.19084 -2.91756,-5.81467 -6.52123,-11.2366 -9.95899,-16.75144 -4.08669,-5.77657 -8.7292,-11.17898 -13.99505,-15.91708 -7.37682,-5.86802 -15.33487,-10.64193 -24.60434,-12.89652 -3.51675,-0.89155 -6.58677,-1.73884 -10.16371,-2.37027 -7.53548,-1.33023 -15.15797,-1.12893 -22.77688,-1.03498 -7.83398,0.043 -15.67034,0.0823 -23.49981,0.37573 l 17.1454,-12.45685 z"
         id="path2989"
         style="fill:#ffff00" />
      <path
         sodipodi:nodetypes="ccccccsssccccccccccccccccccccccccscccccccccccc"
         inkscape:connector-curvature="0"
         d="m 461.77828,283.62746 c -4.75009,-2.20948 -27.95128,-11.80043 -32.65217,-14.10716 -5.7303,-2.91349 -11.92847,-4.78272 -18.12912,-6.404 -4.86581,-1.04736 -9.67534,-2.28855 -14.62712,-2.86173 -3.56015,-0.24922 -7.15911,-0.54449 -10.71037,-0.10919 -5.50936,0.60788 -10.70693,2.63909 -15.68242,4.9913 -1.0161,0.54297 -2.02799,1.09388 -3.04829,1.6289 -6.15225,3.22608 -20.29556,10.65761 7.36225,-4.30404 1.14708,-0.62052 -2.21058,1.38646 -3.27937,2.13378 -0.97362,0.68076 -1.89609,1.4319 -2.84413,2.14785 -5.87066,5.35078 -8.51659,12.82276 -10.71578,20.23539 -1.52932,5.58074 -2.15393,11.33038 -2.39433,17.09347 0.0777,5.32178 -0.43122,10.54858 -1.40685,15.7747 -2.34707,9.83728 -7.95547,18.42678 -12.712,27.22643 -2.8331,5.61526 -5.90816,11.11011 -8.0641,17.02981 -1.56002,4.51455 -1.92309,9.29315 -2.12817,14.02909 -0.14259,3.41937 -0.40257,6.69274 1.90685,9.41673 3.28929,3.00912 6.12856,6.37758 8.77697,9.94775 3.03205,3.45185 6.10792,6.84662 9.08018,10.35215 2.58036,2.92452 5.19284,5.85064 7.26257,9.16507 1.99153,3.1304 4.1593,6.12326 6.45329,9.03562 1.66344,2.35305 3.93977,3.90169 6.33618,5.39676 0.44287,0.18656 4.92635,6.5603 5.36921,6.74686 l -20.79096,5.27724 -0.25253,-2.0203 c -0.50285,-0.25332 -1.51078,1.63992 -2.01363,1.38659 -2.56417,-1.6292 -4.92376,-3.5401 -6.64902,-6.07855 -2.25387,-3.01563 -4.51617,-6.02354 -6.51263,-9.22049 -2.05401,-3.2058 -4.58891,-6.07156 -7.08197,-8.94002 -2.9623,-3.53346 -5.98389,-7.01324 -8.96191,-10.53255 -2.7634,-3.47209 -5.72887,-6.72682 -9.00748,-9.72648 -2.77829,-3.43877 -2.77447,-6.58372 -2.41271,-10.87276 0.17322,-4.89478 0.34909,-9.82727 1.77946,-14.55442 0.35284,-1.02484 1.16681,-3.45856 1.60018,-4.42877 2.04015,-4.56738 5.02915,-8.68068 7.08914,-13.24142 4.67884,-8.54508 10.13629,-16.89419 12.53293,-26.43883 0.93355,-5.10184 1.32508,-10.16452 1.15147,-15.35077 0.39181,-5.98936 1.23371,-11.95117 2.71702,-17.77358 2.15552,-7.62885 4.6029,-15.3797 10.08487,-21.34053 11.06987,-9.08626 24.22241,-15.33194 36.85977,-21.97043 5.22095,-2.27829 10.68466,-4.14292 16.39613,-4.64232 3.65967,-0.17286 7.32471,0.005 10.95791,0.49223 4.91315,0.76326 9.68477,2.16542 14.52977,3.26024 6.26701,1.77564 12.53134,3.73215 18.33051,6.74667 4.74345,2.36145 6.65483,5.43471 11.6636,7.18964 z"
         id="path2991"
         style="fill:#ffff00" />
      <path
         sodipodi:nodetypes="cccscssccccccccsscccscsccccc"
         inkscape:connector-curvature="0"
         d="m 413.43004,340.01918 c -8.75087,-0.35717 -17.50905,-0.33051 -26.2617,-0.65723 -15.04274,-0.71217 -30.10015,-1.00296 -45.1579,-1.1161 -8.95474,0.47808 -18.0869,-0.80319 -27.00663,0.40858 -1.56186,0.21219 -3.09429,0.60256 -4.64144,0.90384 -4.76218,1.21104 -9.24083,3.12072 -13.55234,5.45062 -1.62695,0.87918 -6.4426,3.63428 -4.81887,2.74916 12.84869,-7.00404 16.10701,-9.55039 6.99449,-3.15507 -9.00895,6.64765 -17.04719,14.46411 -25.30382,21.99408 -5.26943,5.01612 -11.18151,9.22996 -16.98181,13.5865 -10.89535,7.46669 -12.71494,7.55227 -25.64829,10.75015 -3.47101,-10.27229 -30.76115,14.96857 -0.88777,-2.60347 -0.71648,0.25688 -1.16243,-0.46992 -1.61105,-1.03981 0.0254,-0.0121 0.0508,-0.0241 0.0763,-0.0362 3.15675,0.61987 6.42143,-0.44616 9.4966,-1.02103 2.48877,-0.72998 3.19052,-0.84787 5.60606,-1.92685 0.9245,-0.41295 3.58164,-1.88672 2.71253,-1.36722 -27.98113,16.72539 -14.76369,8.78321 -8.78062,4.83229 5.81735,-4.50235 11.98242,-8.55133 17.39443,-13.5687 8.41695,-7.5605 16.60595,-15.40261 25.55611,-22.34134 11.45269,-8.35599 4.4922,-3.51459 26.84058,-16.59174 5.94211,-3.47702 12.1998,-6.40288 18.97705,-7.81198 1.57853,-0.23871 3.14759,-0.55183 4.73558,-0.71614 8.84047,-0.9147 17.78695,0.26668 26.64372,0.0584 15.08457,0.31441 30.16691,0.70493 45.25009,1.07783 9.17096,0.13457 18.34826,0.0371 27.51411,-0.31547 l -17.14539,12.45686 z"
         id="path2993"
         style="fill:#ffff00" />
      <path
         sodipodi:nodetypes="ccsccscccccccscccccccccccccccccccsscccccccccccccccsccsccc"
         inkscape:connector-curvature="0"
         d="m 232.73969,233.31817 c 8.547,0.36965 17.1069,0.29381 25.65995,0.28747 7.93494,0.45772 16.19441,-1.0638 23.94829,1.2527 1.21127,0.36188 2.3504,0.93174 3.5256,1.39761 5.90284,3.18647 9.79534,8.53368 13.08242,14.20868 2.0729,3.28565 4.067,6.71227 6.64506,9.64457 1.34072,1.52495 3.27489,3.23474 4.74583,4.59424 5.65713,5.34271 12.62794,8.83996 19.13766,12.97001 6.36834,3.95747 13.26033,6.86623 20.1956,9.64392 5.76715,2.32289 11.95204,2.85892 18.09457,3.18949 7.24227,0.29688 14.49312,0.0549 21.73101,0.41987 7.2434,0.48763 14.49307,0.82299 21.75063,0.98858 6.09692,0.30429 7.1591,2.77023 13.2093,3.49388 3.09574,0.34536 6.24526,0.25611 9.20992,1.3435 1.21516,0.44571 2.37303,1.03435 3.56202,1.54578 3.6864,1.43543 6.87881,3.92704 10.10448,6.17882 2.4096,2.17277 4.94275,4.20307 7.35756,6.36902 2.14235,2.35087 4.5618,4.37082 6.96867,6.43609 1.83763,1.32369 2.42548,3.37335 2.74006,5.5066 0.25536,2.38984 -0.22976,4.6801 -1.33433,6.79318 -1.30812,1.96692 -2.12004,4.1163 -2.99903,6.29076 -1.47302,3.43269 -3.34545,6.62984 -5.39497,9.74275 -1.83443,2.68145 -4.24583,4.83028 -6.17006,7.44637 -1.82553,2.63103 -3.62464,5.28725 -5.19925,8.07754 -1.07409,2.27658 3.11394,3.44037 2.48693,5.87414 -0.62202,1.73245 0.20501,2.47511 1.09749,3.83736 1.0131,1.51124 2.0886,2.96784 3.12917,4.45841 l -11.24376,16.27438 -1.13642,1.01015 c -1.04965,-1.48162 -7.93689,-9.5036 -8.98504,-10.98572 -1.23858,-1.60744 -2.52252,-3.31774 -1.86937,-5.4519 0.54885,-2.60396 1.39912,-5.12891 2.27111,-7.64024 1.41985,-2.96027 3.39708,-5.57863 5.09966,-8.37607 0.94492,-1.31645 1.82608,-2.84675 2.91199,-4.04707 0.68888,-0.76146 1.60214,-1.29677 2.29611,-2.05358 0.37793,-0.41216 0.69116,-0.87926 1.03675,-1.31889 2.11803,-2.95341 4.08999,-5.98779 5.49153,-9.35382 1.01836,-2.12252 1.25256,-4.48713 2.80837,-6.33194 0.90923,-1.84579 2.24288,-3.45113 1.8731,-5.67306 -0.14304,-1.72324 -0.43394,-3.12044 -1.8862,-4.23053 -2.30341,-2.13455 -4.67167,-4.18125 -6.85433,-6.44542 -2.48958,-1.99101 -4.73525,-4.21824 -7.17422,-6.26547 -3.11388,-2.21943 -6.31578,-4.4016 -9.90597,-5.78047 -3.9486,-1.66541 -7.97764,-2.31257 -12.25948,-2.55489 -5.94228,-0.85287 -11.85757,-1.97235 -17.87416,-2.15815 -7.20957,-0.24877 -14.40941,-0.66564 -21.60855,-1.12115 -7.31438,-0.2247 -14.63435,0.0523 -21.94587,-0.31446 -6.29241,-0.41731 -12.59235,-1.22714 -18.42419,-3.78776 -6.9571,-2.95368 -13.88176,-6.01505 -20.34032,-9.97664 -6.59863,-4.19727 -13.49955,-7.98794 -19.34242,-13.25756 -1.54034,-1.38123 -3.69892,-3.23604 -5.09468,-4.79533 -2.66702,-2.97948 -4.5484,-6.59491 -6.6973,-9.93439 -3.05506,-5.24067 -6.73448,-10.25093 -12.25227,-13.0871 -1.08027,-0.3967 -2.13085,-0.88626 -3.24083,-1.19011 -7.62737,-2.08794 -15.74368,-0.65317 -23.51754,-1.05788 -8.81704,-0.007 -17.63963,-0.0695 -26.45126,0.28747 z"
         id="path2995"
         style="fill:#ffff00" />
      <path
         sodipodi:nodetypes="ccccccccccsscccsccccccccsscccccccccccscscccssccccccscccccccccsccccc"
         inkscape:connector-curvature="0"
         d="m 200.94018,344.13626 c 1.80135,-4.94989 4.06537,-9.6625 6.44703,-14.35822 3.44532,-6.91036 7.08456,-13.71559 11.18767,-20.25827 8.00161,-12.44468 13.96897,-13.11574 29.15253,-21.62091 7.09964,-1.90232 14.45114,-1.19145 21.69187,-0.85453 8.50891,0.42306 16.98581,1.29259 25.49468,1.7533 5.61495,0.30627 11.23808,0.30169 16.85905,0.31483 5.15166,0.0106 10.30312,0.0486 15.45479,0.055 4.2308,-0.11631 8.48917,0.32944 12.62682,-0.69296 6.58585,-4.51414 -3.23175,2.253 -16.37347,9.14053 -0.35913,0.18821 0.48336,-0.66116 0.63635,-1.03665 0.21739,-0.53354 0.35215,-1.09974 0.46435,-1.66483 0.25528,-1.28569 0.30582,-2.69878 0.39219,-4.00026 0.043,-4.9858 -1.13353,-9.85535 -2.18061,-14.69635 -1.4883,-6.89266 -2.40703,-13.87607 -3.92807,-20.76495 -1.08812,-3.50245 -1.66813,-7.43722 -3.4792,-10.68937 -0.51313,-0.92143 -1.86011,-2.31388 -2.55905,-3.0826 -2.09729,-2.11866 -4.29972,-2.94321 -7.18211,-3.15416 -3.48216,-0.0612 -6.98575,-0.44771 -10.37181,-1.2766 -2.81478,-0.54247 -5.31988,-1.96253 -7.85404,-3.21783 -2.19115,-1.42667 -3.70331,-3.59549 -5.30685,-5.61943 -1.83936,-2.52755 -3.17005,-5.29586 -3.87519,-8.33339 -2.48081,-10.22495 11.79306,-15.20558 21.11982,-16.28603 4.26608,-0.3062 8.51183,-0.40566 12.75247,-0.9727 1.71762,-0.44508 2.05903,-0.44463 3.65682,-1.20652 0.56748,-0.2706 2.19807,-1.2217 1.65105,-0.9118 -27.77667,15.73655 -18.62198,11.45348 -12.65414,6.28902 2.74275,-2.60864 5.29036,-5.38299 7.6115,-8.36667 2.17073,-2.25909 3.60775,-5.01839 6.11931,-6.93238 8.2995,-4.99458 16.53442,-10.46892 25.75794,-13.61849 2.87465,-0.1355 5.39737,-1.50907 8.05645,-2.5019 0.40151,-0.1092 0.80302,-0.2184 1.20453,-0.3276 l -16.68154,12.90919 0,0 c -0.3722,0.13251 -0.74439,0.26502 -1.11659,0.39753 -2.67279,0.98088 -5.34528,1.84337 -8.10647,2.52118 -7.65058,2.9367 -20.84039,10.57781 10.53214,-7.01275 -1.22452,0.63383 -2.56608,1.2308 -3.46629,2.32629 -1.06033,1.29036 -1.51261,3.06088 -2.96753,4.04531 -1.14727,1.23637 -1.94465,2.6972 -3.07831,3.93428 -1.48619,1.62176 -3.28611,2.99506 -4.65456,4.74101 -7.69832,7.81394 -17.76752,14.16093 -28.59158,16.17739 -4.22225,0.45616 -8.50427,0.3226 -12.67063,1.21819 -7.75865,2.96456 -1.71906,0.76774 15.12371,-9.52142 0.24755,-0.15123 -0.55168,0.20731 -0.77963,0.38673 -0.90493,0.71229 -0.27721,1.8169 -0.25234,2.76046 0.51584,2.75606 1.59744,5.30453 3.37179,7.50517 1.40886,1.79134 2.88266,3.65812 4.88279,4.81198 2.35355,1.22957 4.77005,2.39037 7.40855,2.85712 3.42313,0.61462 6.86979,0.88783 10.3385,1.08191 3.23584,0.55541 5.65304,2.0809 7.87413,4.52274 0.93251,1.10876 2.15921,2.4599 2.83535,3.74196 1.79773,3.40874 2.25294,7.50969 3.38986,11.13681 1.37729,6.88651 2.44603,13.83228 4.0893,20.65903 1.10636,4.98845 2.40056,9.96932 2.61509,15.10048 -0.48832,11.75451 -1.42426,16.21267 -20.56874,19.60734 -4.14508,0.46227 -8.32914,0.009 -12.48979,0.13527 -5.21012,0.0154 -10.42009,0.0785 -15.63026,0.0502 -5.53595,-0.0738 -11.07013,-0.30276 -16.5958,-0.64533 -8.4389,-0.61153 -16.85522,-1.56924 -25.31668,-1.82541 -7.21215,-0.25429 -14.64402,-0.73711 -21.51774,1.90202 33.19233,-19.75729 15.78649,-10.41429 11.49818,-6.34194 -2.16814,2.05895 -4.05495,4.41924 -5.73127,6.8869 -4.24437,6.3891 -7.86574,13.13755 -11.23082,20.02818 -2.22727,4.56442 -4.56469,9.0869 -5.94057,13.9973 l -19.14493,8.79764 z"
         id="path2997"
         style="fill:#ffff00" />
      <path
         sodipodi:nodetypes="cccccccssccccccscccccccccccccsccccccscsscsccccccc"
         inkscape:connector-curvature="0"
         d="m 290.60851,440.34703 c -0.40814,-7.33929 -3.42172,-14.40947 -5.89447,-21.2636 -4.05622,-9.91651 -9.17352,-19.33842 -14.6724,-28.51591 -4.77477,-8.06245 -9.64643,-16.0656 -13.59288,-24.57378 -2.7693,-6.67373 -5.62225,-13.31078 -8.46116,-19.95473 -1.47608,-3.35388 -2.73518,-6.95931 -1.59194,-10.56853 6.00771,-7.46475 16.61057,-12.16346 26.25668,-13.41634 3.27324,-0.5591 6.19881,-2.34901 9.07798,-3.91874 1.13701,-0.61991 4.51301,-2.5428 3.38585,-1.90517 -4.51229,2.55259 -9.02749,5.10002 -13.54124,7.65003 10.19009,-6.45541 18.55021,-15.29103 26.80658,-23.97839 8.97279,-9.04527 18.00456,-18.02624 27.39494,-26.63901 9.77657,-8.57316 19.95362,-16.67452 29.95337,-24.98497 6.63623,-5.32135 12.87942,-11.09573 19.23948,-16.73473 4.44504,-3.86938 9.50345,-6.90768 14.48498,-10.0166 6.5602,-3.6643 13.05827,-7.44212 19.6806,-10.9929 2.26778,-1.21595 4.73201,0.21117 6.42234,1.66845 1.53311,1.02402 1.78347,3.32828 3.24662,4.33137 2.19012,1.8942 4.81184,2.86508 7.53542,3.72104 3.02651,0.85179 -5.99211,4.79799 -2.85974,4.93368 2.72676,0.0616 5.45487,0.0514 8.18224,0.0441 1.34307,0.003 2.68583,-0.0228 4.02882,-0.033 l -4.91542,8.83017 0,0 c -1.325,-0.002 -2.64988,-0.0185 -3.97488,-0.007 -2.76944,0.007 -5.54242,0.0548 -8.30737,-0.13623 -3.20101,-0.29073 -6.36011,-0.95284 -9.43336,-1.89418 -3.00051,-1.02048 -5.87202,-2.20992 -8.28394,-4.33353 -1.18571,-1.28312 -1.8127,-2.96043 -3.09199,-4.16973 -0.61282,-0.38099 -0.85097,-0.60055 -1.59867,-0.74565 -5.4089,-1.04966 -27.55529,17.25502 12.75691,-8.70295 -5.11125,2.99283 -10.19543,6.07796 -14.83566,9.77747 -6.68788,5.6573 -13.05855,11.69156 -19.97332,17.08468 -10.06703,8.22403 -20.15502,16.43219 -30.01516,24.90246 -9.43782,8.56872 -18.49428,17.5233 -27.51204,26.53041 -8.1235,8.63786 -16.26413,17.5161 -26.10743,24.23217 -7.03503,4.14503 -14.05302,8.31912 -21.10508,12.4351 -4.18101,2.44027 -8.53975,4.90794 -13.38801,5.64225 -1.59974,0.32131 -3.11334,0.6972 -4.63329,1.30045 -0.44271,0.17571 -1.72264,0.8057 -1.31457,0.56006 16.22608,-9.76738 23.06099,-12.16123 15.75402,-9.51962 -0.28538,0.20241 -0.65984,0.3176 -0.85613,0.60721 -1.34784,1.98865 0.59531,6.42886 1.21764,8.33817 2.57508,6.73541 5.07197,13.50199 7.97652,20.10806 3.92992,8.43974 8.56003,16.4986 13.29828,24.50743 5.49742,9.316 10.60926,18.87562 14.85325,28.83437 2.64499,7.01901 7.54439,27.65042 9.18465,34.98211 l -20.77702,-4.01569 z"
         id="path2999"
         style="fill:#ffff00" />
    </g>
    <g
       id="g3852"
       transform="matrix(0.17935488,0.99196144,-0.97768672,0.18197355,878.40889,-443.36747)">
      <path
         transform="translate(367.14288,-4.4194174)"
         sodipodi:type="arc"
         style="fill:#333333;fill-rule:evenodd;stroke:#000000;stroke-width:1px;stroke-linecap:butt;stroke-linejoin:miter;stroke-opacity:1"
         id="path3031"
         sodipodi:cx="331.42856"
         sodipodi:cy="310.93362"
         sodipodi:rx="134.28572"
         sodipodi:ry="135.71428"
         d="m 465.71428,310.93362 c 0,74.95293 -60.12177,135.71428 -134.28572,135.71428 -74.16396,0 -134.28572,-60.76135 -134.28572,-135.71428 0,-74.95292 60.12176,-135.71427 134.28572,-135.71427 74.16395,0 134.28572,60.76135 134.28572,135.71427 z" />
      <path
         style="fill:#916f6f"
         id="path3033"
         d="m 657.99856,184.57148 c 7.48407,0.30469 14.97635,0.33399 22.46549,0.37573 1.94367,0.0104 3.88732,0.026 5.83102,0.0312 4.69138,0.0126 6.96054,-0.13969 11.61862,0.37579 5.38647,0.5961 10.60999,2.00008 15.83404,3.3728 9.49566,2.46776 17.70909,7.39971 25.29887,13.45048 5.44126,4.85264 10.29572,10.33241 14.52839,16.26174 3.56428,5.55335 7.04782,11.15824 10.10777,17.00746 1.9446,4.23847 4.08006,8.85473 3.4925,13.60824 -0.23864,0.61888 -0.4244,1.26084 -0.7159,1.85664 -0.65037,1.32926 -1.96863,3.24543 -2.73872,4.46311 -1.85746,2.93707 -3.62316,5.92734 -5.37955,8.92539 -3.88922,6.86355 -7.40496,13.93444 -10.99395,20.95888 -3.88295,7.23616 -7.22532,14.7432 -10.12826,22.42148 -1.81853,4.16918 -2.12623,8.63845 -2.26301,13.11959 -0.0236,4.27063 1.15514,6.25097 4.63497,8.50538 5.11152,2.22864 9.93213,5.05967 14.82951,7.71351 5.78751,3.20509 10.64416,7.37587 14.61702,12.63569 3.3995,5.28846 5.86515,11.09398 8.11047,16.94404 1.97034,5.39286 3.42275,10.92348 4.32933,16.58765 0.49877,3.65615 0.73042,7.34525 0.77711,11.03321 -0.0298,2.61205 -0.0389,5.2893 0.88151,7.76891 0.6897,2.19451 2.36152,3.11884 4.47212,3.67483 0.75868,0.2526 1.5837,1.16875 2.00389,0.19787 l -17.09273,12.716 0,0 c -0.77671,-0.40952 -1.55123,-0.82501 -2.38966,-1.09988 -2.45483,-1.05541 -4.57457,-2.60245 -5.46592,-5.23537 -0.99616,-2.69126 -1.21493,-5.61675 -1.12657,-8.46896 -0.004,-3.63875 0.0155,-7.28497 -0.40695,-10.90586 -0.70769,-5.56739 -2.05097,-10.9809 -3.96464,-16.26248 -2.16047,-5.671 -4.51154,-11.30504 -7.82108,-16.42006 -4.01823,-5.11813 -8.30023,-8.84388 -14.0759,-11.95184 -5.03722,-2.68118 -10.13139,-5.23257 -15.2868,-7.67563 -3.88008,-2.75072 -5.51917,-5.51789 -5.58552,-10.37535 0.15765,-4.66857 0.0535,-9.53844 2.10317,-13.84573 3.24913,-7.67889 6.58698,-15.32874 10.42582,-22.73488 3.40773,-7.08875 7.03335,-14.0861 10.77459,-21.00245 2.77897,-4.87325 5.55854,-9.7399 8.56047,-14.47771 0.18582,-0.43573 0.47197,-0.84127 0.55746,-1.30719 0.59585,-3.24754 -1.86802,-8.24607 -2.9656,-11.19084 -2.91756,-5.81467 -6.52123,-11.2366 -9.95899,-16.75144 -4.08669,-5.77657 -8.7292,-11.17898 -13.99505,-15.91708 -7.37682,-5.86802 -15.33487,-10.64193 -24.60434,-12.89652 -3.51675,-0.89155 -6.58677,-1.73884 -10.16371,-2.37027 -7.53548,-1.33023 -15.15797,-1.12893 -22.77688,-1.03498 -7.83398,0.043 -15.67034,0.0823 -23.49981,0.37573 l 17.1454,-12.45685 z"
         inkscape:connector-curvature="0"
         sodipodi:nodetypes="cccsccccccsccccccccccccccccccccccccccccsccccscccc" />
      <path
         style="fill:#916f6f"
         id="path3035"
         d="m 828.92116,279.20804 c -4.75009,-2.20948 -27.95128,-11.80043 -32.65217,-14.10716 -5.7303,-2.91349 -11.92847,-4.78272 -18.12912,-6.404 -4.86581,-1.04736 -9.67534,-2.28855 -14.62712,-2.86173 -3.56015,-0.24922 -7.15911,-0.54449 -10.71037,-0.10919 -5.50936,0.60788 -10.70693,2.63909 -15.68242,4.9913 -1.0161,0.54297 -2.02799,1.09388 -3.04829,1.6289 -6.15225,3.22608 -20.29556,10.65761 7.36225,-4.30404 1.14708,-0.62052 -2.21058,1.38646 -3.27937,2.13378 -0.97362,0.68076 -1.89609,1.4319 -2.84413,2.14785 -5.87066,5.35078 -8.51659,12.82276 -10.71578,20.23539 -1.52932,5.58074 -2.15393,11.33038 -2.39433,17.09347 0.0777,5.32178 -0.43122,10.54858 -1.40685,15.7747 -2.34707,9.83728 -7.95547,18.42678 -12.712,27.22643 -2.8331,5.61526 -5.90816,11.11011 -8.0641,17.02981 -1.56002,4.51455 -1.92309,9.29315 -2.12817,14.02909 -0.14259,3.41937 -0.40257,6.69274 1.90685,9.41673 3.28929,3.00912 6.12856,6.37758 8.77697,9.94775 3.03205,3.45185 6.10792,6.84662 9.08018,10.35215 2.58036,2.92452 5.19284,5.85064 7.26257,9.16507 1.99153,3.1304 4.1593,6.12326 6.45329,9.03562 1.66344,2.35305 3.93977,3.90169 6.33618,5.39676 0.44287,0.18656 4.92635,6.5603 5.36921,6.74686 l -20.79096,5.27724 -0.25253,-2.0203 c -0.50285,-0.25332 -1.51078,1.63992 -2.01363,1.38659 -2.56417,-1.6292 -4.92376,-3.5401 -6.64902,-6.07855 -2.25387,-3.01563 -4.51617,-6.02354 -6.51263,-9.22049 -2.05401,-3.2058 -4.58891,-6.07156 -7.08197,-8.94002 -2.9623,-3.53346 -5.98389,-7.01324 -8.96191,-10.53255 -2.7634,-3.47209 -5.72887,-6.72682 -9.00748,-9.72648 -2.77829,-3.43877 -2.77447,-6.58372 -2.41271,-10.87276 0.17322,-4.89478 0.34909,-9.82727 1.77946,-14.55442 0.35284,-1.02484 1.16681,-3.45856 1.60018,-4.42877 2.04015,-4.56738 5.02915,-8.68068 7.08914,-13.24142 4.67884,-8.54508 10.13629,-16.89419 12.53293,-26.43883 0.93355,-5.10184 1.32508,-10.16452 1.15147,-15.35077 0.39181,-5.98936 1.23371,-11.95117 2.71702,-17.77358 2.15552,-7.62885 4.6029,-15.3797 10.08487,-21.34053 11.06987,-9.08626 24.22241,-15.33194 36.85977,-21.97043 5.22095,-2.27829 10.68466,-4.14292 16.39613,-4.64232 3.65967,-0.17286 7.32471,0.005 10.95791,0.49223 4.91315,0.76326 9.68477,2.16542 14.52977,3.26024 6.26701,1.77564 12.53134,3.73215 18.33051,6.74667 4.74345,2.36145 6.65483,5.43471 11.6636,7.18964 z"
         inkscape:connector-curvature="0"
         sodipodi:nodetypes="ccccccsssccccccccccccccccccccccccscccccccccccc" />
      <path
         style="fill:#916f6f"
         id="path3037"
         d="m 780.57292,335.59976 c -8.75087,-0.35717 -17.50905,-0.33051 -26.2617,-0.65723 -15.04274,-0.71217 -30.10015,-1.00296 -45.1579,-1.1161 -8.95474,0.47808 -18.0869,-0.80319 -27.00663,0.40858 -1.56186,0.21219 -3.09429,0.60256 -4.64144,0.90384 -4.76218,1.21104 -9.24083,3.12072 -13.55234,5.45062 -1.62695,0.87918 -6.4426,3.63428 -4.81887,2.74916 12.84869,-7.00404 16.10701,-9.55039 6.99449,-3.15507 -9.00895,6.64765 -17.04719,14.46411 -25.30382,21.99408 -5.26943,5.01612 -11.18151,9.22996 -16.98181,13.5865 -10.89535,7.46669 -12.71494,7.55227 -25.64829,10.75015 -3.47101,-10.27229 -30.76115,14.96857 -0.88777,-2.60347 -0.71648,0.25688 -1.16243,-0.46992 -1.61105,-1.03981 0.0254,-0.0121 0.0508,-0.0241 0.0763,-0.0362 3.15675,0.61987 6.42143,-0.44616 9.4966,-1.02103 2.48877,-0.72998 3.19052,-0.84787 5.60606,-1.92685 0.9245,-0.41295 3.58164,-1.88672 2.71253,-1.36722 -27.98113,16.72539 -14.76369,8.78321 -8.78062,4.83229 5.81735,-4.50235 11.98242,-8.55133 17.39443,-13.5687 8.41695,-7.5605 16.60595,-15.40261 25.55611,-22.34134 11.45269,-8.35599 4.4922,-3.51459 26.84058,-16.59174 5.94211,-3.47702 12.1998,-6.40288 18.97705,-7.81198 1.57853,-0.23871 3.14759,-0.55183 4.73558,-0.71614 8.84047,-0.9147 17.78695,0.26668 26.64372,0.0584 15.08457,0.31441 30.16691,0.70493 45.25009,1.07783 9.17096,0.13457 18.34826,0.0371 27.51411,-0.31547 l -17.14539,12.45686 z"
         inkscape:connector-curvature="0"
         sodipodi:nodetypes="cccscssccccccccsscccscsccccc" />
      <path
         style="fill:#916f6f"
         id="path3039"
         d="m 599.88257,228.89875 c 8.547,0.36965 17.1069,0.29381 25.65995,0.28747 7.93494,0.45772 16.19441,-1.0638 23.94829,1.2527 1.21127,0.36188 2.3504,0.93174 3.5256,1.39761 5.90284,3.18647 9.79534,8.53368 13.08242,14.20868 2.0729,3.28565 4.067,6.71227 6.64506,9.64457 1.34072,1.52495 3.27489,3.23474 4.74583,4.59424 5.65713,5.34271 12.62794,8.83996 19.13766,12.97001 6.36834,3.95747 13.26033,6.86623 20.1956,9.64392 5.76715,2.32289 11.95204,2.85892 18.09457,3.18949 7.24227,0.29688 14.49312,0.0549 21.73101,0.41987 7.2434,0.48763 14.49307,0.82299 21.75063,0.98858 6.09692,0.30429 7.1591,2.77023 13.2093,3.49388 3.09574,0.34536 6.24526,0.25611 9.20992,1.3435 1.21516,0.44571 2.37303,1.03435 3.56202,1.54578 3.6864,1.43543 6.87881,3.92704 10.10448,6.17882 2.4096,2.17277 4.94275,4.20307 7.35756,6.36902 2.14235,2.35087 4.5618,4.37082 6.96867,6.43609 1.83763,1.32369 2.42548,3.37335 2.74006,5.5066 0.25536,2.38984 -0.22976,4.6801 -1.33433,6.79318 -1.30812,1.96692 -2.12004,4.1163 -2.99903,6.29076 -1.47302,3.43269 -3.34545,6.62984 -5.39497,9.74275 -1.83443,2.68145 -4.24583,4.83028 -6.17006,7.44637 -1.82553,2.63103 -3.62464,5.28725 -5.19925,8.07754 -1.07409,2.27658 3.11394,3.44037 2.48693,5.87414 -0.62202,1.73245 0.20501,2.47511 1.09749,3.83736 1.0131,1.51124 2.0886,2.96784 3.12917,4.45841 l -11.24376,16.27438 -1.13642,1.01015 c -1.04965,-1.48162 -7.93689,-9.5036 -8.98504,-10.98572 -1.23858,-1.60744 -2.52252,-3.31774 -1.86937,-5.4519 0.54885,-2.60396 1.39912,-5.12891 2.27111,-7.64024 1.41985,-2.96027 3.39708,-5.57863 5.09966,-8.37607 0.94492,-1.31645 1.82608,-2.84675 2.91199,-4.04707 0.68888,-0.76146 1.60214,-1.29677 2.29611,-2.05358 0.37793,-0.41216 0.69116,-0.87926 1.03675,-1.31889 2.11803,-2.95341 4.08999,-5.98779 5.49153,-9.35382 1.01836,-2.12252 1.25256,-4.48713 2.80837,-6.33194 0.90923,-1.84579 2.24288,-3.45113 1.8731,-5.67306 -0.14304,-1.72324 -0.43394,-3.12044 -1.8862,-4.23053 -2.30341,-2.13455 -4.67167,-4.18125 -6.85433,-6.44542 -2.48958,-1.99101 -4.73525,-4.21824 -7.17422,-6.26547 -3.11388,-2.21943 -6.31578,-4.4016 -9.90597,-5.78047 -3.9486,-1.66541 -7.97764,-2.31257 -12.25948,-2.55489 -5.94228,-0.85287 -11.85757,-1.97235 -17.87416,-2.15815 -7.20957,-0.24877 -14.40941,-0.66564 -21.60855,-1.12115 -7.31438,-0.2247 -14.63435,0.0523 -21.94587,-0.31446 -6.29241,-0.41731 -12.59235,-1.22714 -18.42419,-3.78776 -6.9571,-2.95368 -13.88176,-6.01505 -20.34032,-9.97664 -6.59863,-4.19727 -13.49955,-7.98794 -19.34242,-13.25756 -1.54034,-1.38123 -3.69892,-3.23604 -5.09468,-4.79533 -2.66702,-2.97948 -4.5484,-6.59491 -6.6973,-9.93439 -3.05506,-5.24067 -6.73448,-10.25093 -12.25227,-13.0871 -1.08027,-0.3967 -2.13085,-0.88626 -3.24083,-1.19011 -7.62737,-2.08794 -15.74368,-0.65317 -23.51754,-1.05788 -8.81704,-0.007 -17.63963,-0.0695 -26.45126,0.28747 z"
         inkscape:connector-curvature="0"
         sodipodi:nodetypes="ccsccscccccccscccccccccccccccccccsscccccccccccccccsccsccc" />
      <path
         style="fill:#916f6f"
         id="path3041"
         d="m 568.08306,339.71684 c 1.80135,-4.94989 4.06537,-9.6625 6.44703,-14.35822 3.44532,-6.91036 7.08456,-13.71559 11.18767,-20.25827 8.00161,-12.44468 13.96897,-13.11574 29.15253,-21.62091 7.09964,-1.90232 14.45114,-1.19145 21.69187,-0.85453 8.50891,0.42306 16.98581,1.29259 25.49468,1.7533 5.61495,0.30627 11.23808,0.30169 16.85905,0.31483 5.15166,0.0106 10.30312,0.0486 15.45479,0.055 4.2308,-0.11631 8.48917,0.32944 12.62682,-0.69296 6.58585,-4.51414 -3.23175,2.253 -16.37347,9.14053 -0.35913,0.18821 0.48336,-0.66116 0.63635,-1.03665 0.21739,-0.53354 0.35215,-1.09974 0.46435,-1.66483 0.25528,-1.28569 0.30582,-2.69878 0.39219,-4.00026 0.043,-4.9858 -1.13353,-9.85535 -2.18061,-14.69635 -1.4883,-6.89266 -2.40703,-13.87607 -3.92807,-20.76495 -1.08812,-3.50245 -1.66813,-7.43722 -3.4792,-10.68937 -0.51313,-0.92143 -1.86011,-2.31388 -2.55905,-3.0826 -2.09729,-2.11866 -4.29972,-2.94321 -7.18211,-3.15416 -3.48216,-0.0612 -6.98575,-0.44771 -10.37181,-1.2766 -2.81478,-0.54247 -5.31988,-1.96253 -7.85404,-3.21783 -2.19115,-1.42667 -3.70331,-3.59549 -5.30685,-5.61943 -1.83936,-2.52755 -3.17005,-5.29586 -3.87519,-8.33339 -2.48081,-10.22495 11.79306,-15.20558 21.11982,-16.28603 4.26608,-0.3062 8.51183,-0.40566 12.75247,-0.9727 1.71762,-0.44508 2.05903,-0.44463 3.65682,-1.20652 0.56748,-0.2706 2.19807,-1.2217 1.65105,-0.9118 -27.77667,15.73655 -18.62198,11.45348 -12.65414,6.28902 2.74275,-2.60864 5.29036,-5.38299 7.6115,-8.36667 2.17073,-2.25909 3.60775,-5.01839 6.11931,-6.93238 8.2995,-4.99458 16.53442,-10.46892 25.75794,-13.61849 2.87465,-0.1355 5.39737,-1.50907 8.05645,-2.5019 0.40151,-0.1092 0.80302,-0.2184 1.20453,-0.3276 l -16.68154,12.90919 0,0 c -0.3722,0.13251 -0.74439,0.26502 -1.11659,0.39753 -2.67279,0.98088 -5.34528,1.84337 -8.10647,2.52118 -7.65058,2.9367 -20.84039,10.57781 10.53214,-7.01275 -1.22452,0.63383 -2.56608,1.2308 -3.46629,2.32629 -1.06033,1.29036 -1.51261,3.06088 -2.96753,4.04531 -1.14727,1.23637 -1.94465,2.6972 -3.07831,3.93428 -1.48619,1.62176 -3.28611,2.99506 -4.65456,4.74101 -7.69832,7.81394 -17.76752,14.16093 -28.59158,16.17739 -4.22225,0.45616 -8.50427,0.3226 -12.67063,1.21819 -7.75865,2.96456 -1.71906,0.76774 15.12371,-9.52142 0.24755,-0.15123 -0.55168,0.20731 -0.77963,0.38673 -0.90493,0.71229 -0.27721,1.8169 -0.25234,2.76046 0.51584,2.75606 1.59744,5.30453 3.37179,7.50517 1.40886,1.79134 2.88266,3.65812 4.88279,4.81198 2.35355,1.22957 4.77005,2.39037 7.40855,2.85712 3.42313,0.61462 6.86979,0.88783 10.3385,1.08191 3.23584,0.55541 5.65304,2.0809 7.87413,4.52274 0.93251,1.10876 2.15921,2.4599 2.83535,3.74196 1.79773,3.40874 2.25294,7.50969 3.38986,11.13681 1.37729,6.88651 2.44603,13.83228 4.0893,20.65903 1.10636,4.98845 2.40056,9.96932 2.61509,15.10048 -0.48832,11.75451 -1.42426,16.21267 -20.56874,19.60734 -4.14508,0.46227 -8.32914,0.009 -12.48979,0.13527 -5.21012,0.0154 -10.42009,0.0785 -15.63026,0.0502 -5.53595,-0.0738 -11.07013,-0.30276 -16.5958,-0.64533 -8.4389,-0.61153 -16.85522,-1.56924 -25.31668,-1.82541 -7.21215,-0.25429 -14.64402,-0.73711 -21.51774,1.90202 33.19233,-19.75729 15.78649,-10.41429 11.49818,-6.34194 -2.16814,2.05895 -4.05495,4.41924 -5.73127,6.8869 -4.24437,6.3891 -7.86574,13.13755 -11.23082,20.02818 -2.22727,4.56442 -4.56469,9.0869 -5.94057,13.9973 l -19.14493,8.79764 z"
         inkscape:connector-curvature="0"
         sodipodi:nodetypes="ccccccccccsscccsccccccccsscccccccccccscscccssccccccscccccccccsccccc" />
      <path
         style="fill:#916f6f"
         id="path3043"
         d="m 657.75139,435.92761 c -0.40814,-7.33929 -3.42172,-14.40947 -5.89447,-21.2636 -4.05622,-9.91651 -9.17352,-19.33842 -14.6724,-28.51591 -4.77477,-8.06245 -9.64643,-16.0656 -13.59288,-24.57378 -2.7693,-6.67373 -5.62225,-13.31078 -8.46116,-19.95473 -1.47608,-3.35388 -2.73518,-6.95931 -1.59194,-10.56853 6.00771,-7.46475 16.61057,-12.16346 26.25668,-13.41634 3.27324,-0.5591 6.19881,-2.34901 9.07798,-3.91874 1.13701,-0.61991 4.51301,-2.5428 3.38585,-1.90517 -4.51229,2.55259 -9.02749,5.10002 -13.54124,7.65003 10.19009,-6.45541 18.55021,-15.29103 26.80658,-23.97839 8.97279,-9.04527 18.00456,-18.02624 27.39494,-26.63901 9.77657,-8.57316 19.95362,-16.67452 29.95337,-24.98497 6.63623,-5.32135 12.87942,-11.09573 19.23948,-16.73473 4.44504,-3.86938 9.50345,-6.90768 14.48498,-10.0166 6.5602,-3.6643 13.05827,-7.44212 19.6806,-10.9929 2.26778,-1.21595 4.73201,0.21117 6.42234,1.66845 1.53311,1.02402 1.78347,3.32828 3.24662,4.33137 2.19012,1.8942 4.81184,2.86508 7.53542,3.72104 3.02651,0.85179 -5.99211,4.79799 -2.85974,4.93368 2.72676,0.0616 5.45487,0.0514 8.18224,0.0441 1.34307,0.003 2.68583,-0.0228 4.02882,-0.033 l -4.91542,8.83017 0,0 c -1.325,-0.002 -2.64988,-0.0185 -3.97488,-0.007 -2.76944,0.007 -5.54242,0.0548 -8.30737,-0.13623 -3.20101,-0.29073 -6.36011,-0.95284 -9.43336,-1.89418 -3.00051,-1.02048 -5.87202,-2.20992 -8.28394,-4.33353 -1.18571,-1.28312 -1.8127,-2.96043 -3.09199,-4.16973 -0.61282,-0.38099 -0.85097,-0.60055 -1.59867,-0.74565 -5.4089,-1.04966 -27.55529,17.25502 12.75691,-8.70295 -5.11125,2.99283 -10.19543,6.07796 -14.83566,9.77747 -6.68788,5.6573 -13.05855,11.69156 -19.97332,17.08468 -10.06703,8.22403 -20.15502,16.43219 -30.01516,24.90246 -9.43782,8.56872 -18.49428,17.5233 -27.51204,26.53041 -8.1235,8.63786 -16.26413,17.5161 -26.10743,24.23217 -7.03503,4.14503 -14.05302,8.31912 -21.10508,12.4351 -4.18101,2.44027 -8.53975,4.90794 -13.38801,5.64225 -1.59974,0.32131 -3.11334,0.6972 -4.63329,1.30045 -0.44271,0.17571 -1.72264,0.8057 -1.31457,0.56006 16.22608,-9.76738 23.06099,-12.16123 15.75402,-9.51962 -0.28538,0.20241 -0.65984,0.3176 -0.85613,0.60721 -1.34784,1.98865 0.59531,6.42886 1.21764,8.33817 2.57508,6.73541 5.07197,13.50199 7.97652,20.10806 3.92992,8.43974 8.56003,16.4986 13.29828,24.50743 5.49742,9.316 10.60926,18.87562 14.85325,28.83437 2.64499,7.01901 7.54439,27.65042 9.18465,34.98211 l -20.77702,-4.01569 z"
         inkscape:connector-curvature="0"
         sodipodi:nodetypes="cccccccssccccccscccccccccccccsccccccscsscsccccccc" />
    </g>
    <g
       id="g3836"
       transform="matrix(0.29725288,-0.96215259,0.95384086,0.29984313,12.758601,626.22322)">
      <path
         transform="translate(97.571442,-4.4194174)"
         d="m 465.71428,310.93362 c 0,74.95293 -60.12177,135.71428 -134.28572,135.71428 -74.16396,0 -134.28572,-60.76135 -134.28572,-135.71428 0,-74.95292 60.12176,-135.71427 134.28572,-135.71427 74.16395,0 134.28572,60.76135 134.28572,135.71427 z"
         sodipodi:ry="135.71428"
         sodipodi:rx="134.28572"
         sodipodi:cy="310.93362"
         sodipodi:cx="331.42856"
         id="path3047"
         style="fill:#49a400;fill-opacity:1;fill-rule:evenodd;stroke:#000000;stroke-width:1px;stroke-linecap:butt;stroke-linejoin:miter;stroke-opacity:1"
         sodipodi:type="arc" />
      <path
         sodipodi:nodetypes="cccsccccccsccccccccccccccccccccccccccccsccccscccc"
         inkscape:connector-curvature="0"
         d="m 388.42712,184.57148 c 7.48407,0.30469 14.97635,0.33399 22.46549,0.37573 1.94367,0.0104 3.88732,0.026 5.83102,0.0312 4.69138,0.0126 6.96054,-0.13969 11.61862,0.37579 5.38647,0.5961 10.60999,2.00008 15.83404,3.3728 9.49566,2.46776 17.70909,7.39971 25.29887,13.45048 5.44126,4.85264 10.29572,10.33241 14.52839,16.26174 3.56428,5.55335 7.04782,11.15824 10.10777,17.00746 1.9446,4.23847 4.08006,8.85473 3.4925,13.60824 -0.23864,0.61888 -0.4244,1.26084 -0.7159,1.85664 -0.65037,1.32926 -1.96863,3.24543 -2.73872,4.46311 -1.85746,2.93707 -3.62316,5.92734 -5.37955,8.92539 -3.88922,6.86355 -7.40496,13.93444 -10.99395,20.95888 -3.88295,7.23616 -7.22532,14.7432 -10.12826,22.42148 -1.81853,4.16918 -2.12623,8.63845 -2.26301,13.11959 -0.0236,4.27063 1.15514,6.25097 4.63497,8.50538 5.11152,2.22864 9.93213,5.05967 14.82951,7.71351 5.78751,3.20509 10.64416,7.37587 14.61702,12.63569 3.3995,5.28846 5.86515,11.09398 8.11047,16.94404 1.97034,5.39286 3.42275,10.92348 4.32933,16.58765 0.49877,3.65615 0.73042,7.34525 0.77711,11.03321 -0.0298,2.61205 -0.0389,5.2893 0.88151,7.76891 0.6897,2.19451 2.36152,3.11884 4.47212,3.67483 0.75868,0.2526 1.5837,1.16875 2.00389,0.19787 l -17.09273,12.716 0,0 c -0.77671,-0.40952 -1.55123,-0.82501 -2.38966,-1.09988 -2.45483,-1.05541 -4.57457,-2.60245 -5.46592,-5.23537 -0.99616,-2.69126 -1.21493,-5.61675 -1.12657,-8.46896 -0.004,-3.63875 0.0155,-7.28497 -0.40695,-10.90586 -0.70769,-5.56739 -2.05097,-10.9809 -3.96464,-16.26248 -2.16047,-5.671 -4.51154,-11.30504 -7.82108,-16.42006 -4.01823,-5.11813 -8.30023,-8.84388 -14.0759,-11.95184 -5.03722,-2.68118 -10.13139,-5.23257 -15.2868,-7.67563 -3.88008,-2.75072 -5.51917,-5.51789 -5.58552,-10.37535 0.15765,-4.66857 0.0535,-9.53844 2.10317,-13.84573 3.24913,-7.67889 6.58698,-15.32874 10.42582,-22.73488 3.40773,-7.08875 7.03335,-14.0861 10.77459,-21.00245 2.77897,-4.87325 5.55854,-9.7399 8.56047,-14.47771 0.18582,-0.43573 0.47197,-0.84127 0.55746,-1.30719 0.59585,-3.24754 -1.86802,-8.24607 -2.9656,-11.19084 -2.91756,-5.81467 -6.52123,-11.2366 -9.95899,-16.75144 -4.08669,-5.77657 -8.7292,-11.17898 -13.99505,-15.91708 -7.37682,-5.86802 -15.33487,-10.64193 -24.60434,-12.89652 -3.51675,-0.89155 -6.58677,-1.73884 -10.16371,-2.37027 -7.53548,-1.33023 -15.15797,-1.12893 -22.77688,-1.03498 -7.83398,0.043 -15.67034,0.0823 -23.49981,0.37573 l 17.1454,-12.45685 z"
         id="path3049"
         style="fill:#0000ff" />
      <path
         sodipodi:nodetypes="ccccccsssccccccccccccccccccccccccscccccccccccc"
         inkscape:connector-curvature="0"
         d="m 559.34972,279.20804 c -4.75009,-2.20948 -27.95128,-11.80043 -32.65217,-14.10716 -5.7303,-2.91349 -11.92847,-4.78272 -18.12912,-6.404 -4.86581,-1.04736 -9.67534,-2.28855 -14.62712,-2.86173 -3.56015,-0.24922 -7.15911,-0.54449 -10.71037,-0.10919 -5.50936,0.60788 -10.70693,2.63909 -15.68242,4.9913 -1.0161,0.54297 -2.02799,1.09388 -3.04829,1.6289 -6.15225,3.22608 -20.29556,10.65761 7.36225,-4.30404 1.14708,-0.62052 -2.21058,1.38646 -3.27937,2.13378 -0.97362,0.68076 -1.89609,1.4319 -2.84413,2.14785 -5.87066,5.35078 -8.51659,12.82276 -10.71578,20.23539 -1.52932,5.58074 -2.15393,11.33038 -2.39433,17.09347 0.0777,5.32178 -0.43122,10.54858 -1.40685,15.7747 -2.34707,9.83728 -7.95547,18.42678 -12.712,27.22643 -2.8331,5.61526 -5.90816,11.11011 -8.0641,17.02981 -1.56002,4.51455 -1.92309,9.29315 -2.12817,14.02909 -0.14259,3.41937 -0.40257,6.69274 1.90685,9.41673 3.28929,3.00912 6.12856,6.37758 8.77697,9.94775 3.03205,3.45185 6.10792,6.84662 9.08018,10.35215 2.58036,2.92452 5.19284,5.85064 7.26257,9.16507 1.99153,3.1304 4.1593,6.12326 6.45329,9.03562 1.66344,2.35305 3.93977,3.90169 6.33618,5.39676 0.44287,0.18656 4.92635,6.5603 5.36921,6.74686 l -20.79096,5.27724 -0.25253,-2.0203 c -0.50285,-0.25332 -1.51078,1.63992 -2.01363,1.38659 -2.56417,-1.6292 -4.92376,-3.5401 -6.64902,-6.07855 -2.25387,-3.01563 -4.51617,-6.02354 -6.51263,-9.22049 -2.05401,-3.2058 -4.58891,-6.07156 -7.08197,-8.94002 -2.9623,-3.53346 -5.98389,-7.01324 -8.96191,-10.53255 -2.7634,-3.47209 -5.72887,-6.72682 -9.00748,-9.72648 -2.77829,-3.43877 -2.77447,-6.58372 -2.41271,-10.87276 0.17322,-4.89478 0.34909,-9.82727 1.77946,-14.55442 0.35284,-1.02484 1.16681,-3.45856 1.60018,-4.42877 2.04015,-4.56738 5.02915,-8.68068 7.08914,-13.24142 4.67884,-8.54508 10.13629,-16.89419 12.53293,-26.43883 0.93355,-5.10184 1.32508,-10.16452 1.15147,-15.35077 0.39181,-5.98936 1.23371,-11.95117 2.71702,-17.77358 2.15552,-7.62885 4.6029,-15.3797 10.08487,-21.34053 11.06987,-9.08626 24.22241,-15.33194 36.85977,-21.97043 5.22095,-2.27829 10.68466,-4.14292 16.39613,-4.64232 3.65967,-0.17286 7.32471,0.005 10.95791,0.49223 4.91315,0.76326 9.68477,2.16542 14.52977,3.26024 6.26701,1.77564 12.53134,3.73215 18.33051,6.74667 4.74345,2.36145 6.65483,5.43471 11.6636,7.18964 z"
         id="path3051"
         style="fill:#0000ff" />
      <path
         sodipodi:nodetypes="cccscssccccccccsscccscsccccc"
         inkscape:connector-curvature="0"
         d="m 511.00148,335.59976 c -8.75087,-0.35717 -17.50905,-0.33051 -26.2617,-0.65723 -15.04274,-0.71217 -30.10015,-1.00296 -45.1579,-1.1161 -8.95474,0.47808 -18.0869,-0.80319 -27.00663,0.40858 -1.56186,0.21219 -3.09429,0.60256 -4.64144,0.90384 -4.76218,1.21104 -9.24083,3.12072 -13.55234,5.45062 -1.62695,0.87918 -6.4426,3.63428 -4.81887,2.74916 12.84869,-7.00404 16.10701,-9.55039 6.99449,-3.15507 -9.00895,6.64765 -17.04719,14.46411 -25.30382,21.99408 -5.26943,5.01612 -11.18151,9.22996 -16.98181,13.5865 -10.89535,7.46669 -12.71494,7.55227 -25.64829,10.75015 -3.47101,-10.27229 -30.76115,14.96857 -0.88777,-2.60347 -0.71648,0.25688 -1.16243,-0.46992 -1.61105,-1.03981 0.0254,-0.0121 0.0508,-0.0241 0.0763,-0.0362 3.15675,0.61987 6.42143,-0.44616 9.4966,-1.02103 2.48877,-0.72998 3.19052,-0.84787 5.60606,-1.92685 0.9245,-0.41295 3.58164,-1.88672 2.71253,-1.36722 -27.98113,16.72539 -14.76369,8.78321 -8.78062,4.83229 5.81735,-4.50235 11.98242,-8.55133 17.39443,-13.5687 8.41695,-7.5605 16.60595,-15.40261 25.55611,-22.34134 11.45269,-8.35599 4.4922,-3.51459 26.84058,-16.59174 5.94211,-3.47702 12.1998,-6.40288 18.97705,-7.81198 1.57853,-0.23871 3.14759,-0.55183 4.73558,-0.71614 8.84047,-0.9147 17.78695,0.26668 26.64372,0.0584 15.08457,0.31441 30.16691,0.70493 45.25009,1.07783 9.17096,0.13457 18.34826,0.0371 27.51411,-0.31547 l -17.14539,12.45686 z"
         id="path3053"
         style="fill:#0000ff" />
      <path
         sodipodi:nodetypes="ccsccscccccccscccccccccccccccccccsscccccccccccccccsccsccc"
         inkscape:connector-curvature="0"
         d="m 330.31113,228.89875 c 8.547,0.36965 17.1069,0.29381 25.65995,0.28747 7.93494,0.45772 16.19441,-1.0638 23.94829,1.2527 1.21127,0.36188 2.3504,0.93174 3.5256,1.39761 5.90284,3.18647 9.79534,8.53368 13.08242,14.20868 2.0729,3.28565 4.067,6.71227 6.64506,9.64457 1.34072,1.52495 3.27489,3.23474 4.74583,4.59424 5.65713,5.34271 12.62794,8.83996 19.13766,12.97001 6.36834,3.95747 13.26033,6.86623 20.1956,9.64392 5.76715,2.32289 11.95204,2.85892 18.09457,3.18949 7.24227,0.29688 14.49312,0.0549 21.73101,0.41987 7.2434,0.48763 14.49307,0.82299 21.75063,0.98858 6.09692,0.30429 7.1591,2.77023 13.2093,3.49388 3.09574,0.34536 6.24526,0.25611 9.20992,1.3435 1.21516,0.44571 2.37303,1.03435 3.56202,1.54578 3.6864,1.43543 6.87881,3.92704 10.10448,6.17882 2.4096,2.17277 4.94275,4.20307 7.35756,6.36902 2.14235,2.35087 4.5618,4.37082 6.96867,6.43609 1.83763,1.32369 2.42548,3.37335 2.74006,5.5066 0.25536,2.38984 -0.22976,4.6801 -1.33433,6.79318 -1.30812,1.96692 -2.12004,4.1163 -2.99903,6.29076 -1.47302,3.43269 -3.34545,6.62984 -5.39497,9.74275 -1.83443,2.68145 -4.24583,4.83028 -6.17006,7.44637 -1.82553,2.63103 -3.62464,5.28725 -5.19925,8.07754 -1.07409,2.27658 3.11394,3.44037 2.48693,5.87414 -0.62202,1.73245 0.20501,2.47511 1.09749,3.83736 1.0131,1.51124 2.0886,2.96784 3.12917,4.45841 l -11.24376,16.27438 -1.13642,1.01015 c -1.04965,-1.48162 -7.93689,-9.5036 -8.98504,-10.98572 -1.23858,-1.60744 -2.52252,-3.31774 -1.86937,-5.4519 0.54885,-2.60396 1.39912,-5.12891 2.27111,-7.64024 1.41985,-2.96027 3.39708,-5.57863 5.09966,-8.37607 0.94492,-1.31645 1.82608,-2.84675 2.91199,-4.04707 0.68888,-0.76146 1.60214,-1.29677 2.29611,-2.05358 0.37793,-0.41216 0.69116,-0.87926 1.03675,-1.31889 2.11803,-2.95341 4.08999,-5.98779 5.49153,-9.35382 1.01836,-2.12252 1.25256,-4.48713 2.80837,-6.33194 0.90923,-1.84579 2.24288,-3.45113 1.8731,-5.67306 -0.14304,-1.72324 -0.43394,-3.12044 -1.8862,-4.23053 -2.30341,-2.13455 -4.67167,-4.18125 -6.85433,-6.44542 -2.48958,-1.99101 -4.73525,-4.21824 -7.17422,-6.26547 -3.11388,-2.21943 -6.31578,-4.4016 -9.90597,-5.78047 -3.9486,-1.66541 -7.97764,-2.31257 -12.25948,-2.55489 -5.94228,-0.85287 -11.85757,-1.97235 -17.87416,-2.15815 -7.20957,-0.24877 -14.40941,-0.66564 -21.60855,-1.12115 -7.31438,-0.2247 -14.63435,0.0523 -21.94587,-0.31446 -6.29241,-0.41731 -12.59235,-1.22714 -18.42419,-3.78776 -6.9571,-2.95368 -13.88176,-6.01505 -20.34032,-9.97664 -6.59863,-4.19727 -13.49955,-7.98794 -19.34242,-13.25756 -1.54034,-1.38123 -3.69892,-3.23604 -5.09468,-4.79533 -2.66702,-2.97948 -4.5484,-6.59491 -6.6973,-9.93439 -3.05506,-5.24067 -6.73448,-10.25093 -12.25227,-13.0871 -1.08027,-0.3967 -2.13085,-0.88626 -3.24083,-1.19011 -7.62737,-2.08794 -15.74368,-0.65317 -23.51754,-1.05788 -8.81704,-0.007 -17.63963,-0.0695 -26.45126,0.28747 z"
         id="path3055"
         style="fill:#0000ff" />
      <path
         sodipodi:nodetypes="ccccccccccsscccsccccccccsscccccccccccscscccssccccccscccccccccsccccc"
         inkscape:connector-curvature="0"
         d="m 298.51162,339.71684 c 1.80135,-4.94989 4.06537,-9.6625 6.44703,-14.35822 3.44532,-6.91036 7.08456,-13.71559 11.18767,-20.25827 8.00161,-12.44468 13.96897,-13.11574 29.15253,-21.62091 7.09964,-1.90232 14.45114,-1.19145 21.69187,-0.85453 8.50891,0.42306 16.98581,1.29259 25.49468,1.7533 5.61495,0.30627 11.23808,0.30169 16.85905,0.31483 5.15166,0.0106 10.30312,0.0486 15.45479,0.055 4.2308,-0.11631 8.48917,0.32944 12.62682,-0.69296 6.58585,-4.51414 -3.23175,2.253 -16.37347,9.14053 -0.35913,0.18821 0.48336,-0.66116 0.63635,-1.03665 0.21739,-0.53354 0.35215,-1.09974 0.46435,-1.66483 0.25528,-1.28569 0.30582,-2.69878 0.39219,-4.00026 0.043,-4.9858 -1.13353,-9.85535 -2.18061,-14.69635 -1.4883,-6.89266 -2.40703,-13.87607 -3.92807,-20.76495 -1.08812,-3.50245 -1.66813,-7.43722 -3.4792,-10.68937 -0.51313,-0.92143 -1.86011,-2.31388 -2.55905,-3.0826 -2.09729,-2.11866 -4.29972,-2.94321 -7.18211,-3.15416 -3.48216,-0.0612 -6.98575,-0.44771 -10.37181,-1.2766 -2.81478,-0.54247 -5.31988,-1.96253 -7.85404,-3.21783 -2.19115,-1.42667 -3.70331,-3.59549 -5.30685,-5.61943 -1.83936,-2.52755 -3.17005,-5.29586 -3.87519,-8.33339 -2.48081,-10.22495 11.79306,-15.20558 21.11982,-16.28603 4.26608,-0.3062 8.51183,-0.40566 12.75247,-0.9727 1.71762,-0.44508 2.05903,-0.44463 3.65682,-1.20652 0.56748,-0.2706 2.19807,-1.2217 1.65105,-0.9118 -27.77667,15.73655 -18.62198,11.45348 -12.65414,6.28902 2.74275,-2.60864 5.29036,-5.38299 7.6115,-8.36667 2.17073,-2.25909 3.60775,-5.01839 6.11931,-6.93238 8.2995,-4.99458 16.53442,-10.46892 25.75794,-13.61849 2.87465,-0.1355 5.39737,-1.50907 8.05645,-2.5019 0.40151,-0.1092 0.80302,-0.2184 1.20453,-0.3276 l -16.68154,12.90919 0,0 c -0.3722,0.13251 -0.74439,0.26502 -1.11659,0.39753 -2.67279,0.98088 -5.34528,1.84337 -8.10647,2.52118 -7.65058,2.9367 -20.84039,10.57781 10.53214,-7.01275 -1.22452,0.63383 -2.56608,1.2308 -3.46629,2.32629 -1.06033,1.29036 -1.51261,3.06088 -2.96753,4.04531 -1.14727,1.23637 -1.94465,2.6972 -3.07831,3.93428 -1.48619,1.62176 -3.28611,2.99506 -4.65456,4.74101 -7.69832,7.81394 -17.76752,14.16093 -28.59158,16.17739 -4.22225,0.45616 -8.50427,0.3226 -12.67063,1.21819 -7.75865,2.96456 -1.71906,0.76774 15.12371,-9.52142 0.24755,-0.15123 -0.55168,0.20731 -0.77963,0.38673 -0.90493,0.71229 -0.27721,1.8169 -0.25234,2.76046 0.51584,2.75606 1.59744,5.30453 3.37179,7.50517 1.40886,1.79134 2.88266,3.65812 4.88279,4.81198 2.35355,1.22957 4.77005,2.39037 7.40855,2.85712 3.42313,0.61462 6.86979,0.88783 10.3385,1.08191 3.23584,0.55541 5.65304,2.0809 7.87413,4.52274 0.93251,1.10876 2.15921,2.4599 2.83535,3.74196 1.79773,3.40874 2.25294,7.50969 3.38986,11.13681 1.37729,6.88651 2.44603,13.83228 4.0893,20.65903 1.10636,4.98845 2.40056,9.96932 2.61509,15.10048 -0.48832,11.75451 -1.42426,16.21267 -20.56874,19.60734 -4.14508,0.46227 -8.32914,0.009 -12.48979,0.13527 -5.21012,0.0154 -10.42009,0.0785 -15.63026,0.0502 -5.53595,-0.0738 -11.07013,-0.30276 -16.5958,-0.64533 -8.4389,-0.61153 -16.85522,-1.56924 -25.31668,-1.82541 -7.21215,-0.25429 -14.64402,-0.73711 -21.51774,1.90202 33.19233,-19.75729 15.78649,-10.41429 11.49818,-6.34194 -2.16814,2.05895 -4.05495,4.41924 -5.73127,6.8869 -4.24437,6.3891 -7.86574,13.13755 -11.23082,20.02818 -2.22727,4.56442 -4.56469,9.0869 -5.94057,13.9973 l -19.14493,8.79764 z"
         id="path3057"
         style="fill:#0000ff" />
      <path
         sodipodi:nodetypes="cccccccssccccccscccccccccccccsccccccscsscsccccccc"
         inkscape:connector-curvature="0"
         d="m 388.17995,435.92761 c -0.40814,-7.33929 -3.42172,-14.40947 -5.89447,-21.2636 -4.05622,-9.91651 -9.17352,-19.33842 -14.6724,-28.51591 -4.77477,-8.06245 -9.64643,-16.0656 -13.59288,-24.57378 -2.7693,-6.67373 -5.62225,-13.31078 -8.46116,-19.95473 -1.47608,-3.35388 -2.73518,-6.95931 -1.59194,-10.56853 6.00771,-7.46475 16.61057,-12.16346 26.25668,-13.41634 3.27324,-0.5591 6.19881,-2.34901 9.07798,-3.91874 1.13701,-0.61991 4.51301,-2.5428 3.38585,-1.90517 -4.51229,2.55259 -9.02749,5.10002 -13.54124,7.65003 10.19009,-6.45541 18.55021,-15.29103 26.80658,-23.97839 8.97279,-9.04527 18.00456,-18.02624 27.39494,-26.63901 9.77657,-8.57316 19.95362,-16.67452 29.95337,-24.98497 6.63623,-5.32135 12.87942,-11.09573 19.23948,-16.73473 4.44504,-3.86938 9.50345,-6.90768 14.48498,-10.0166 6.5602,-3.6643 13.05827,-7.44212 19.6806,-10.9929 2.26778,-1.21595 4.73201,0.21117 6.42234,1.66845 1.53311,1.02402 1.78347,3.32828 3.24662,4.33137 2.19012,1.8942 4.81184,2.86508 7.53542,3.72104 3.02651,0.85179 -5.99211,4.79799 -2.85974,4.93368 2.72676,0.0616 5.45487,0.0514 8.18224,0.0441 1.34307,0.003 2.68583,-0.0228 4.02882,-0.033 l -4.91542,8.83017 0,0 c -1.325,-0.002 -2.64988,-0.0185 -3.97488,-0.007 -2.76944,0.007 -5.54242,0.0548 -8.30737,-0.13623 -3.20101,-0.29073 -6.36011,-0.95284 -9.43336,-1.89418 -3.00051,-1.02048 -5.87202,-2.20992 -8.28394,-4.33353 -1.18571,-1.28312 -1.8127,-2.96043 -3.09199,-4.16973 -0.61282,-0.38099 -0.85097,-0.60055 -1.59867,-0.74565 -5.4089,-1.04966 -27.55529,17.25502 12.75691,-8.70295 -5.11125,2.99283 -10.19543,6.07796 -14.83566,9.77747 -6.68788,5.6573 -13.05855,11.69156 -19.97332,17.08468 -10.06703,8.22403 -20.15502,16.43219 -30.01516,24.90246 -9.43782,8.56872 -18.49428,17.5233 -27.51204,26.53041 -8.1235,8.63786 -16.26413,17.5161 -26.10743,24.23217 -7.03503,4.14503 -14.05302,8.31912 -21.10508,12.4351 -4.18101,2.44027 -8.53975,4.90794 -13.38801,5.64225 -1.59974,0.32131 -3.11334,0.6972 -4.63329,1.30045 -0.44271,0.17571 -1.72264,0.8057 -1.31457,0.56006 16.22608,-9.76738 23.06099,-12.16123 15.75402,-9.51962 -0.28538,0.20241 -0.65984,0.3176 -0.85613,0.60721 -1.34784,1.98865 0.59531,6.42886 1.21764,8.33817 2.57508,6.73541 5.07197,13.50199 7.97652,20.10806 3.92992,8.43974 8.56003,16.4986 13.29828,24.50743 5.49742,9.316 10.60926,18.87562 14.85325,28.83437 2.64499,7.01901 7.54439,27.65042 9.18465,34.98211 l -20.77702,-4.01569 z"
         id="path3059"
         style="fill:#0000ff" />
    </g>
  </g>
</svg>
